M48
;Layer_Color=9474304
;FILE_FORMAT=4:4
METRIC,LZ
;TYPE=PLATED
T1F00S00C0.7000
T2F00S00C0.8000
T3F00S00C0.8500
T4F00S00C0.9000
T5F00S00C1.0000
T6F00S00C1.0500
T7F00S00C1.1000
T8F00S00C1.6000
T9F00S00C2.2361
T10F00S00C2.6900
T11F00S00C3.2000
%
T01
X0021082Y0028956
X0023082
T02
X0038561Y0007747
X0043561
X0044958Y0032004
Y0033274
Y0034544
X0050038
Y0033274
Y0035814
T03
X0059618Y0030226
X0050618
X0039878Y0035687
X0034878
X0028884Y0036449
Y003937
Y0033401
X0019884
Y0036449
Y003937
T04
X0056134Y0019177
X0058674
Y0026797
X0056134
X0053594
X0051054
Y0019177
X0053594
T05
X0035926Y0021294
Y0023794
Y0026294
T06
X0052571Y0009398
X0060071
T07
X0064516Y0021209
Y0023709
T08
X0013335Y0007422
X0019635
X0025935
Y0023622
X0019635
X0013335
T09
X0016942Y0028439
X0009342Y0028139
X0005842Y0032639
X0012319Y0035179
X0014142Y0037639
T10
X0042926Y0019394
Y0028194
T11
X0002921Y0002921
X0065659
X0064262Y0030353
X0043434Y0041529
X0002921
M30
