G04*
G04 #@! TF.GenerationSoftware,Altium Limited,Altium Designer,23.2.1 (34)*
G04*
G04 Layer_Color=255*
%FSLAX44Y44*%
%MOMM*%
G71*
G04*
G04 #@! TF.SameCoordinates,3219B47F-80F4-41BA-9109-FB6CE15A0C88*
G04*
G04*
G04 #@! TF.FilePolarity,Positive*
G04*
G01*
G75*
%ADD38R,1.0500X1.0500*%
%ADD39C,1.0500*%
%ADD40R,1.3500X1.3500*%
%ADD41C,1.3500*%
%ADD42C,2.9000*%
%ADD43C,3.3540*%
%ADD44R,3.3540X3.3540*%
%ADD45C,2.4000*%
%ADD46R,2.4000X2.4000*%
%ADD47C,3.7000*%
%ADD48C,4.0000*%
%ADD49C,1.5000*%
%ADD50C,1.5750*%
%ADD51R,1.5750X1.5750*%
%ADD52R,1.5000X1.5000*%
%ADD53C,1.6500*%
%ADD54R,1.6500X1.6500*%
%ADD55C,1.2000*%
%ADD56R,1.2000X1.2000*%
%ADD57C,1.1000*%
%ADD58R,1.1000X1.1000*%
%ADD59R,1.2750X1.2750*%
%ADD60C,1.2750*%
D38*
X500380Y332740D02*
D03*
X449580Y345440D02*
D03*
D39*
X500380D02*
D03*
Y358140D02*
D03*
X449580Y332740D02*
D03*
Y320040D02*
D03*
D40*
X506180Y302260D02*
D03*
X288840Y334010D02*
D03*
Y364490D02*
D03*
X198840Y393700D02*
D03*
D41*
X596180Y302260D02*
D03*
X198840Y334010D02*
D03*
X288840Y393700D02*
D03*
X198840Y364490D02*
D03*
D42*
X123190Y351790D02*
D03*
X141420Y376390D02*
D03*
D43*
X169420Y284390D02*
D03*
X93420Y281390D02*
D03*
D44*
X58420Y326390D02*
D03*
D45*
X259350Y74220D02*
D03*
X196350D02*
D03*
X133350D02*
D03*
X259350Y236220D02*
D03*
X196350D02*
D03*
D46*
X133350D02*
D03*
D47*
X434340Y415290D02*
D03*
X29210D02*
D03*
X642620Y303530D02*
D03*
X656590Y29210D02*
D03*
X29210D02*
D03*
D48*
X429260Y281940D02*
D03*
Y193940D02*
D03*
D49*
X359260Y262940D02*
D03*
Y237940D02*
D03*
Y212940D02*
D03*
X510540Y191770D02*
D03*
X535940D02*
D03*
X561340D02*
D03*
X586740D02*
D03*
X510540Y267970D02*
D03*
X535940D02*
D03*
X561340D02*
D03*
D50*
X600710Y93980D02*
D03*
D51*
X525710D02*
D03*
D52*
X586740Y267970D02*
D03*
D53*
X645160Y237090D02*
D03*
D54*
Y212090D02*
D03*
D55*
X435610Y77470D02*
D03*
D56*
X385610D02*
D03*
D57*
X230820Y289560D02*
D03*
D58*
X210820D02*
D03*
D59*
X348780Y356870D02*
D03*
D60*
X398780D02*
D03*
M02*
