G04*
G04 #@! TF.GenerationSoftware,Altium Limited,Altium Designer,23.2.1 (34)*
G04*
G04 Layer_Color=128*
%FSLAX44Y44*%
%MOMM*%
G71*
G04*
G04 #@! TF.SameCoordinates,3219B47F-80F4-41BA-9109-FB6CE15A0C88*
G04*
G04*
G04 #@! TF.FilePolarity,Positive*
G04*
G01*
G75*
%ADD64C,0.1270*%
D64*
X496380Y332740D02*
X504380D01*
X500380Y328740D02*
Y336740D01*
X496380Y345440D02*
X504380D01*
X500380Y341440D02*
Y349440D01*
X496380Y358140D02*
X504380D01*
X500380Y354140D02*
Y362140D01*
X501930Y302260D02*
X510430D01*
X506180Y298010D02*
Y306510D01*
X591930Y302260D02*
X600430D01*
X596180Y298010D02*
Y306510D01*
X112010Y351790D02*
X134370D01*
X123190Y340610D02*
Y362970D01*
X158240Y284390D02*
X180600D01*
X169420Y273210D02*
Y295570D01*
X130240Y376390D02*
X152600D01*
X141420Y365210D02*
Y387570D01*
X82240Y281390D02*
X104600D01*
X93420Y270210D02*
Y292570D01*
X47240Y326390D02*
X69600D01*
X58420Y315210D02*
Y337570D01*
X251350Y74220D02*
X267350D01*
X259350Y66220D02*
Y82220D01*
X188350Y74220D02*
X204350D01*
X196350Y66220D02*
Y82220D01*
X125350Y74220D02*
X141350D01*
X133350Y66220D02*
Y82220D01*
X251350Y236220D02*
X267350D01*
X259350Y228220D02*
Y244220D01*
X188350Y236220D02*
X204350D01*
X196350Y228220D02*
Y244220D01*
X125350Y236220D02*
X141350D01*
X133350Y228220D02*
Y244220D01*
X418340Y415290D02*
X450340D01*
X434340Y399290D02*
Y431290D01*
X415810Y281940D02*
X442710D01*
X429260Y268490D02*
Y295390D01*
X415810Y193940D02*
X442710D01*
X429260Y180490D02*
Y207390D01*
X354260Y262940D02*
X364260D01*
X359260Y257940D02*
Y267940D01*
X354260Y237940D02*
X364260D01*
X359260Y232940D02*
Y242940D01*
X354260Y212940D02*
X364260D01*
X359260Y207940D02*
Y217940D01*
X595460Y93980D02*
X605960D01*
X600710Y88730D02*
Y99230D01*
X520460Y93980D02*
X530960D01*
X525710Y88730D02*
Y99230D01*
X506040Y191770D02*
X515040D01*
X510540Y187270D02*
Y196270D01*
X531440Y191770D02*
X540440D01*
X535940Y187270D02*
Y196270D01*
X556840Y191770D02*
X565840D01*
X561340Y187270D02*
Y196270D01*
X582240Y191770D02*
X591240D01*
X586740Y187270D02*
Y196270D01*
X506040Y267970D02*
X515040D01*
X510540Y263470D02*
Y272470D01*
X531440Y267970D02*
X540440D01*
X535940Y263470D02*
Y272470D01*
X556840Y267970D02*
X565840D01*
X561340Y263470D02*
Y272470D01*
X582240Y267970D02*
X591240D01*
X586740Y263470D02*
Y272470D01*
X639660Y237090D02*
X650660D01*
X645160Y231590D02*
Y242590D01*
X639660Y212090D02*
X650660D01*
X645160Y206590D02*
Y217590D01*
X194590Y334010D02*
X203090D01*
X198840Y329760D02*
Y338260D01*
X284590Y334010D02*
X293090D01*
X288840Y329760D02*
Y338260D01*
X431610Y77470D02*
X439610D01*
X435610Y73470D02*
Y81470D01*
X381610Y77470D02*
X389610D01*
X385610Y73470D02*
Y81470D01*
X227320Y289560D02*
X234320D01*
X230820Y286060D02*
Y293060D01*
X207320Y289560D02*
X214320D01*
X210820Y286060D02*
Y293060D01*
X344530Y356870D02*
X353030D01*
X348780Y352620D02*
Y361120D01*
X394530Y356870D02*
X403030D01*
X398780Y352620D02*
Y361120D01*
X13210Y415290D02*
X45210D01*
X29210Y399290D02*
Y431290D01*
X626620Y303530D02*
X658620D01*
X642620Y287530D02*
Y319530D01*
X640590Y29210D02*
X672590D01*
X656590Y13210D02*
Y45210D01*
X13210Y29210D02*
X45210D01*
X29210Y13210D02*
Y45210D01*
X284590Y393700D02*
X293090D01*
X288840Y389450D02*
Y397950D01*
X445580Y345440D02*
X453580D01*
X449580Y341440D02*
Y349440D01*
X445580Y332740D02*
X453580D01*
X449580Y328740D02*
Y336740D01*
X445580Y320040D02*
X453580D01*
X449580Y316040D02*
Y324040D01*
X284590Y364490D02*
X293090D01*
X288840Y360240D02*
Y368740D01*
X194590Y364490D02*
X203090D01*
X198840Y360240D02*
Y368740D01*
X194590Y393700D02*
X203090D01*
X198840Y389450D02*
Y397950D01*
M02*
