G04*
G04 #@! TF.GenerationSoftware,Altium Limited,Altium Designer,23.2.1 (34)*
G04*
G04 Layer_Color=65535*
%FSLAX44Y44*%
%MOMM*%
G71*
G04*
G04 #@! TF.SameCoordinates,3219B47F-80F4-41BA-9109-FB6CE15A0C88*
G04*
G04*
G04 #@! TF.FilePolarity,Positive*
G04*
G01*
G75*
%ADD10C,0.2000*%
%ADD11C,0.2500*%
%ADD12C,0.6000*%
%ADD13C,0.1000*%
%ADD14C,0.2540*%
D10*
X513731Y364779D02*
G03*
X513735Y326103I-13352J-19339D01*
G01*
X643210Y93980D02*
G03*
X643210Y93980I-80000J0D01*
G01*
X599640Y236220D02*
G03*
X599640Y223520I0J-6350D01*
G01*
X475610Y77470D02*
G03*
X475610Y77470I-65000J0D01*
G01*
X245820Y289560D02*
G03*
X245820Y289560I-25000J0D01*
G01*
X423780Y356870D02*
G03*
X423780Y356870I-50000J0D01*
G01*
X436228Y313401D02*
G03*
X436225Y352077I13352J19339D01*
G01*
X513730Y326103D02*
Y364777D01*
X582680Y290260D02*
Y314260D01*
X519680Y290260D02*
X582680D01*
X519680Y314260D02*
X582680D01*
X519680Y290260D02*
Y314260D01*
X497640Y203370D02*
Y256370D01*
X599640Y203370D02*
Y223520D01*
Y236220D02*
Y256370D01*
X497640Y203370D02*
X599640D01*
X497640Y256370D02*
X599640D01*
X611160Y187590D02*
X645160D01*
X611160D02*
Y261590D01*
X668660D01*
Y212090D02*
Y261590D01*
X275340Y322010D02*
Y346010D01*
X212340Y322010D02*
X275340D01*
X212340Y346010D02*
X275340D01*
X212340Y322010D02*
Y346010D01*
X436230Y313403D02*
Y352077D01*
X212340Y352490D02*
Y376490D01*
X275340D01*
X212340Y352490D02*
X275340D01*
Y376490D01*
Y381700D02*
Y405700D01*
X212340Y381700D02*
X275340D01*
X212340Y405700D02*
X275340D01*
X212340Y381700D02*
Y405700D01*
D11*
X501630Y315940D02*
G03*
X501630Y315940I-1250J0D01*
G01*
X600990Y267970D02*
G03*
X600990Y267970I-1250J0D01*
G01*
X450830Y362240D02*
G03*
X450830Y362240I-1250J0D01*
G01*
D12*
X592640Y246370D02*
G03*
X592640Y246370I-3000J0D01*
G01*
D13*
X40420Y356390D02*
Y383890D01*
Y356390D02*
Y383890D01*
X117920D01*
X40420D02*
X117920D01*
X165420D02*
X180420D01*
X165420D02*
X180420D01*
Y311390D02*
Y383890D01*
Y311390D02*
Y383890D01*
X117920Y268890D02*
X150420D01*
X117920D02*
X150420D01*
X40420D02*
X70420D01*
X40420D02*
X70420D01*
X40420D02*
Y296390D01*
Y268890D02*
Y296390D01*
X5420D02*
X40420D01*
X5420D02*
X40420D01*
X5420D02*
Y356390D01*
Y296390D02*
Y356390D01*
X40420D01*
X5420D02*
X40420D01*
X7350Y255220D02*
X339350D01*
X7350Y55220D02*
Y255220D01*
Y55220D02*
X339350D01*
Y255220D01*
D14*
X472866Y311148D02*
X479637D01*
X476252D01*
Y300992D01*
X489794D02*
X483023D01*
X489794Y307763D01*
Y309456D01*
X488101Y311148D01*
X484716D01*
X483023Y309456D01*
X528746Y321312D02*
Y331468D01*
X533824D01*
X535517Y329776D01*
Y326390D01*
X533824Y324697D01*
X528746D01*
X532132D02*
X535517Y321312D01*
X543981D02*
Y331468D01*
X538903Y326390D01*
X545674D01*
X428839Y375918D02*
X435610D01*
X432224D01*
Y365762D01*
X438996D02*
X442381D01*
X440688D01*
Y375918D01*
X438996Y374226D01*
X309878Y385236D02*
X299722D01*
Y390314D01*
X301414Y392007D01*
X304800D01*
X306493Y390314D01*
Y385236D01*
Y388622D02*
X309878Y392007D01*
X301414Y395393D02*
X299722Y397086D01*
Y400471D01*
X301414Y402164D01*
X303107D01*
X304800Y400471D01*
Y398778D01*
Y400471D01*
X306493Y402164D01*
X308186D01*
X309878Y400471D01*
Y397086D01*
X308186Y395393D01*
X309878Y356026D02*
X299722D01*
Y361104D01*
X301414Y362797D01*
X304800D01*
X306493Y361104D01*
Y356026D01*
Y359412D02*
X309878Y362797D01*
Y372954D02*
Y366183D01*
X303107Y372954D01*
X301414D01*
X299722Y371261D01*
Y367876D01*
X301414Y366183D01*
X309878Y319619D02*
X299722D01*
Y324697D01*
X301414Y326390D01*
X304800D01*
X306493Y324697D01*
Y319619D01*
Y323004D02*
X309878Y326390D01*
Y329776D02*
Y333161D01*
Y331468D01*
X299722D01*
X301414Y329776D01*
X612990Y267972D02*
Y278128D01*
X618069D01*
X619762Y276436D01*
Y273050D01*
X618069Y271357D01*
X612990D01*
X629918Y276436D02*
X628226Y278128D01*
X624840D01*
X623147Y276436D01*
Y269664D01*
X624840Y267972D01*
X628226D01*
X629918Y269664D01*
X633304Y267972D02*
X636689D01*
X634997D01*
Y278128D01*
X633304Y276436D01*
X80817Y414888D02*
X77432D01*
X79124D01*
Y406424D01*
X77432Y404732D01*
X75739D01*
X74046Y406424D01*
X90974Y404732D02*
X84203D01*
X90974Y411503D01*
Y413196D01*
X89281Y414888D01*
X85896D01*
X84203Y413196D01*
X25400Y284478D02*
X22014D01*
X23707D01*
Y276014D01*
X22014Y274322D01*
X20322D01*
X18629Y276014D01*
X28786Y274322D02*
X32171D01*
X30478D01*
Y284478D01*
X28786Y282786D01*
X636697Y180338D02*
X640082D01*
X638390D01*
Y170182D01*
X636697D01*
X640082D01*
X651932Y178646D02*
X650239Y180338D01*
X646854D01*
X645161Y178646D01*
Y171874D01*
X646854Y170182D01*
X650239D01*
X651932Y171874D01*
X655318Y170182D02*
X658703D01*
X657010D01*
Y180338D01*
X655318Y178646D01*
X661247Y107526D02*
X659554Y109218D01*
X656169D01*
X654476Y107526D01*
Y100754D01*
X656169Y99062D01*
X659554D01*
X661247Y100754D01*
X669711Y99062D02*
Y109218D01*
X664633Y104140D01*
X671404D01*
X366607Y160866D02*
X364914Y162558D01*
X361529D01*
X359836Y160866D01*
Y154094D01*
X361529Y152402D01*
X364914D01*
X366607Y154094D01*
X369993Y160866D02*
X371686Y162558D01*
X375071D01*
X376764Y160866D01*
Y159173D01*
X375071Y157480D01*
X373378D01*
X375071D01*
X376764Y155787D01*
Y154094D01*
X375071Y152402D01*
X371686D01*
X369993Y154094D01*
X318347Y294216D02*
X316654Y295908D01*
X313269D01*
X311576Y294216D01*
Y287444D01*
X313269Y285752D01*
X316654D01*
X318347Y287444D01*
X328504Y285752D02*
X321733D01*
X328504Y292523D01*
Y294216D01*
X326811Y295908D01*
X323426D01*
X321733Y294216D01*
X276540Y266276D02*
X274847Y267968D01*
X271462D01*
X269769Y266276D01*
Y259504D01*
X271462Y257812D01*
X274847D01*
X276540Y259504D01*
X279926Y257812D02*
X283311D01*
X281618D01*
Y267968D01*
X279926Y266276D01*
M02*
