G04*
G04 #@! TF.GenerationSoftware,Altium Limited,Altium Designer,23.2.1 (34)*
G04*
G04 Layer_Color=2752767*
%FSLAX44Y44*%
%MOMM*%
G71*
G04*
G04 #@! TF.SameCoordinates,3219B47F-80F4-41BA-9109-FB6CE15A0C88*
G04*
G04*
G04 #@! TF.FilePolarity,Positive*
G04*
G01*
G75*
%ADD64C,0.1270*%
%ADD65C,0.1693*%
%ADD66C,0.1016*%
D64*
X497840Y330200D02*
Y327660D01*
X502920D01*
Y330200D01*
X505460D01*
Y335280D01*
X502920D01*
Y337820D01*
X497840D01*
Y335280D01*
X495300D01*
Y330200D01*
X497840D01*
Y342900D02*
Y340360D01*
X502920D01*
Y342900D01*
X505460D01*
Y347980D01*
X502920D01*
Y350520D01*
X497840D01*
Y347980D01*
X495300D01*
Y342900D01*
X497840D01*
Y355600D02*
Y353060D01*
X502920D01*
Y355600D01*
X505460D01*
Y360680D01*
X502920D01*
Y363220D01*
X497840D01*
Y360680D01*
X495300D01*
Y355600D01*
X497840D01*
X123190Y346710D02*
X125730Y349250D01*
X128270D01*
X125730Y351790D01*
X128270Y354330D01*
X125730D01*
X123190Y356870D01*
X120650Y354330D01*
X118110D01*
X120650Y351790D01*
X118110Y349250D01*
X120650D01*
X123190Y346710D01*
X169420Y279310D02*
X171960Y281850D01*
X174500D01*
X171960Y284390D01*
X174500Y286930D01*
X171960D01*
X169420Y289470D01*
X166880Y286930D01*
X164340D01*
X166880Y284390D01*
X164340Y281850D01*
X166880D01*
X169420Y279310D01*
X141420Y371310D02*
X143960Y373850D01*
X146500D01*
X143960Y376390D01*
X146500Y378930D01*
X143960D01*
X141420Y381470D01*
X138880Y378930D01*
X136340D01*
X138880Y376390D01*
X136340Y373850D01*
X138880D01*
X141420Y371310D01*
X93420Y276310D02*
X95960Y278850D01*
X98500D01*
X95960Y281390D01*
X98500Y283930D01*
X95960D01*
X93420Y286470D01*
X90880Y283930D01*
X88340D01*
X90880Y281390D01*
X88340Y278850D01*
X90880D01*
X93420Y276310D01*
X58420Y321310D02*
X60960Y323850D01*
X63500D01*
X60960Y326390D01*
X63500Y328930D01*
X60960D01*
X58420Y331470D01*
X55880Y328930D01*
X53340D01*
X55880Y326390D01*
X53340Y323850D01*
X55880D01*
X58420Y321310D01*
X254270Y69140D02*
X256810Y74220D01*
X254270Y79300D01*
X259350Y76760D01*
X264430Y79300D01*
X261890Y74220D01*
X264430Y69140D01*
X259350Y71680D01*
X254270Y69140D01*
X191270D02*
X193810Y74220D01*
X191270Y79300D01*
X196350Y76760D01*
X201430Y79300D01*
X198890Y74220D01*
X201430Y69140D01*
X196350Y71680D01*
X191270Y69140D01*
X128270D02*
X130810Y74220D01*
X128270Y79300D01*
X133350Y76760D01*
X138430Y79300D01*
X135890Y74220D01*
X138430Y69140D01*
X133350Y71680D01*
X128270Y69140D01*
X254270Y231140D02*
X256810Y236220D01*
X254270Y241300D01*
X259350Y238760D01*
X264430Y241300D01*
X261890Y236220D01*
X264430Y231140D01*
X259350Y233680D01*
X254270Y231140D01*
X191270D02*
X193810Y236220D01*
X191270Y241300D01*
X196350Y238760D01*
X201430Y241300D01*
X198890Y236220D01*
X201430Y231140D01*
X196350Y233680D01*
X191270Y231140D01*
X128270D02*
X130810Y236220D01*
X128270Y241300D01*
X133350Y238760D01*
X138430Y241300D01*
X135890Y236220D01*
X138430Y231140D01*
X133350Y233680D01*
X128270Y231140D01*
X429260Y410210D02*
X431800Y415290D01*
X429260Y420370D01*
X434340Y417830D01*
X439420Y420370D01*
X436880Y415290D01*
X439420Y410210D01*
X434340Y412750D01*
X429260Y410210D01*
X431292Y412242D02*
X432816Y415290D01*
X431292Y418338D01*
X434340Y416814D01*
X437388Y418338D01*
X435864Y415290D01*
X437388Y412242D01*
X434340Y413766D01*
X431292Y412242D01*
X354180Y257860D02*
Y268020D01*
X364340D01*
Y257860D01*
X354180D01*
X356212Y259892D02*
Y265988D01*
X362308D01*
Y259892D01*
X356212D01*
X354180Y232860D02*
Y243020D01*
X364340D01*
Y232860D01*
X354180D01*
X356212Y234892D02*
Y240988D01*
X362308D01*
Y234892D01*
X356212D01*
X354180Y207860D02*
Y218020D01*
X364340D01*
Y207860D01*
X354180D01*
X356212Y209892D02*
Y215988D01*
X362308D01*
Y209892D01*
X356212D01*
X595630Y93980D02*
X600710Y99060D01*
X605790Y93980D01*
X600710Y88900D01*
X595630Y93980D01*
X520630D02*
X525710Y99060D01*
X530790Y93980D01*
X525710Y88900D01*
X520630Y93980D01*
X510540Y186690D02*
X505460Y196850D01*
X515620D01*
X510540Y186690D01*
Y188722D02*
X507492Y194818D01*
X513588D01*
X510540Y188722D01*
X535940Y186690D02*
X530860Y196850D01*
X541020D01*
X535940Y186690D01*
Y188722D02*
X532892Y194818D01*
X538988D01*
X535940Y188722D01*
X561340Y186690D02*
X556260Y196850D01*
X566420D01*
X561340Y186690D01*
Y188722D02*
X558292Y194818D01*
X564388D01*
X561340Y188722D01*
X586740Y186690D02*
X581660Y196850D01*
X591820D01*
X586740Y186690D01*
Y188722D02*
X583692Y194818D01*
X589788D01*
X586740Y188722D01*
X510540Y262890D02*
X505460Y273050D01*
X515620D01*
X510540Y262890D01*
Y264922D02*
X507492Y271018D01*
X513588D01*
X510540Y264922D01*
X535940Y262890D02*
X530860Y273050D01*
X541020D01*
X535940Y262890D01*
Y264922D02*
X532892Y271018D01*
X538988D01*
X535940Y264922D01*
X561340Y262890D02*
X556260Y273050D01*
X566420D01*
X561340Y262890D01*
Y264922D02*
X558292Y271018D01*
X564388D01*
X561340Y264922D01*
X586740Y262890D02*
X581660Y273050D01*
X591820D01*
X586740Y262890D01*
Y264922D02*
X583692Y271018D01*
X589788D01*
X586740Y264922D01*
X645160Y232010D02*
X640080Y242170D01*
X650240D01*
X645160Y232010D01*
Y207010D02*
X640080Y217170D01*
X650240D01*
X645160Y207010D01*
X433070Y74930D02*
Y72390D01*
X438150D01*
Y74930D01*
X440690D01*
Y80010D01*
X438150D01*
Y82550D01*
X433070D01*
Y80010D01*
X430530D01*
Y74930D01*
X433070D01*
X383070D02*
Y72390D01*
X388150D01*
Y74930D01*
X390690D01*
Y80010D01*
X388150D01*
Y82550D01*
X383070D01*
Y80010D01*
X380530D01*
Y74930D01*
X383070D01*
X225740Y284480D02*
Y294640D01*
X235900D01*
Y284480D01*
X225740D01*
X205740D02*
Y294640D01*
X215900D01*
Y284480D01*
X205740D01*
X24130Y410210D02*
X26670Y415290D01*
X24130Y420370D01*
X29210Y417830D01*
X34290Y420370D01*
X31750Y415290D01*
X34290Y410210D01*
X29210Y412750D01*
X24130Y410210D01*
X26162Y412242D02*
X27686Y415290D01*
X26162Y418338D01*
X29210Y416814D01*
X32258Y418338D01*
X30734Y415290D01*
X32258Y412242D01*
X29210Y413766D01*
X26162Y412242D01*
X637540Y298450D02*
X640080Y303530D01*
X637540Y308610D01*
X642620Y306070D01*
X647700Y308610D01*
X645160Y303530D01*
X647700Y298450D01*
X642620Y300990D01*
X637540Y298450D01*
X639572Y300482D02*
X641096Y303530D01*
X639572Y306578D01*
X642620Y305054D01*
X645668Y306578D01*
X644144Y303530D01*
X645668Y300482D01*
X642620Y302006D01*
X639572Y300482D01*
X651510Y24130D02*
X654050Y29210D01*
X651510Y34290D01*
X656590Y31750D01*
X661670Y34290D01*
X659130Y29210D01*
X661670Y24130D01*
X656590Y26670D01*
X651510Y24130D01*
X653542Y26162D02*
X655066Y29210D01*
X653542Y32258D01*
X656590Y30734D01*
X659638Y32258D01*
X658114Y29210D01*
X659638Y26162D01*
X656590Y27686D01*
X653542Y26162D01*
X24130Y24130D02*
X26670Y29210D01*
X24130Y34290D01*
X29210Y31750D01*
X34290Y34290D01*
X31750Y29210D01*
X34290Y24130D01*
X29210Y26670D01*
X24130Y24130D01*
X26162Y26162D02*
X27686Y29210D01*
X26162Y32258D01*
X29210Y30734D01*
X32258Y32258D01*
X30734Y29210D01*
X32258Y26162D01*
X29210Y27686D01*
X26162Y26162D01*
X447040Y342900D02*
Y340360D01*
X452120D01*
Y342900D01*
X454660D01*
Y347980D01*
X452120D01*
Y350520D01*
X447040D01*
Y347980D01*
X444500D01*
Y342900D01*
X447040D01*
Y330200D02*
Y327660D01*
X452120D01*
Y330200D01*
X454660D01*
Y335280D01*
X452120D01*
Y337820D01*
X447040D01*
Y335280D01*
X444500D01*
Y330200D01*
X447040D01*
Y317500D02*
Y314960D01*
X452120D01*
Y317500D01*
X454660D01*
Y322580D01*
X452120D01*
Y325120D01*
X447040D01*
Y322580D01*
X444500D01*
Y317500D01*
X447040D01*
D65*
X511260Y302260D02*
G03*
X511260Y302260I-5080J0D01*
G01*
X601260D02*
G03*
X601260Y302260I-5080J0D01*
G01*
X434340Y281940D02*
G03*
X434340Y281940I-5080J0D01*
G01*
Y193940D02*
G03*
X434340Y193940I-5080J0D01*
G01*
X203920Y334010D02*
G03*
X203920Y334010I-5080J0D01*
G01*
X293920D02*
G03*
X293920Y334010I-5080J0D01*
G01*
X353860Y356870D02*
G03*
X353860Y356870I-5080J0D01*
G01*
X403860D02*
G03*
X403860Y356870I-5080J0D01*
G01*
X293920Y393700D02*
G03*
X293920Y393700I-5080J0D01*
G01*
Y364490D02*
G03*
X293920Y364490I-5080J0D01*
G01*
X203920D02*
G03*
X203920Y364490I-5080J0D01*
G01*
Y393700D02*
G03*
X203920Y393700I-5080J0D01*
G01*
D66*
X432308Y281940D02*
G03*
X432308Y281940I-3048J0D01*
G01*
Y193940D02*
G03*
X432308Y193940I-3048J0D01*
G01*
M02*
