G04*
G04 #@! TF.GenerationSoftware,Altium Limited,Altium Designer,23.2.1 (34)*
G04*
G04 Layer_Physical_Order=2*
G04 Layer_Color=16711680*
%FSLAX44Y44*%
%MOMM*%
G71*
G04*
G04 #@! TF.SameCoordinates,3219B47F-80F4-41BA-9109-FB6CE15A0C88*
G04*
G04*
G04 #@! TF.FilePolarity,Positive*
G04*
G01*
G75*
%ADD38R,1.0500X1.0500*%
%ADD39C,1.0500*%
%ADD40R,1.3500X1.3500*%
%ADD41C,1.3500*%
%ADD42C,2.9000*%
%ADD43C,3.3540*%
%ADD44R,3.3540X3.3540*%
%ADD45C,2.4000*%
%ADD46R,2.4000X2.4000*%
%ADD47C,3.7000*%
%ADD48C,4.0000*%
%ADD49C,1.5000*%
%ADD50C,1.5750*%
%ADD51R,1.5750X1.5750*%
%ADD52R,1.5000X1.5000*%
%ADD53C,1.6500*%
%ADD54R,1.6500X1.6500*%
%ADD55C,1.2000*%
%ADD56R,1.2000X1.2000*%
%ADD57C,1.1000*%
%ADD58R,1.1000X1.1000*%
%ADD59R,1.2750X1.2750*%
%ADD60C,1.2750*%
%ADD61C,0.3810*%
G36*
X553720Y332740D02*
X647700D01*
X679450Y300990D01*
Y6350D01*
X6350D01*
Y438150D01*
X448310D01*
X553720Y332740D01*
D02*
G37*
%LPC*%
G36*
X436287Y435060D02*
X434975D01*
Y415925D01*
X454110D01*
Y417237D01*
X453350Y421057D01*
X451860Y424655D01*
X449696Y427893D01*
X446943Y430646D01*
X443705Y432810D01*
X440107Y434300D01*
X436287Y435060D01*
D02*
G37*
G36*
X433705D02*
X432393D01*
X428573Y434300D01*
X424975Y432810D01*
X421737Y430646D01*
X418984Y427893D01*
X416820Y424655D01*
X415330Y421057D01*
X414570Y417237D01*
Y415925D01*
X433705D01*
Y435060D01*
D02*
G37*
G36*
X31157D02*
X29845D01*
Y415925D01*
X48980D01*
Y417237D01*
X48220Y421057D01*
X46730Y424655D01*
X44566Y427893D01*
X41813Y430646D01*
X38575Y432810D01*
X34977Y434300D01*
X31157Y435060D01*
D02*
G37*
G36*
X28575D02*
X27263D01*
X23443Y434300D01*
X19845Y432810D01*
X16607Y430646D01*
X13854Y427893D01*
X11690Y424655D01*
X10200Y421057D01*
X9440Y417237D01*
Y415925D01*
X28575D01*
Y435060D01*
D02*
G37*
G36*
X290830Y412177D02*
X259250D01*
X258011Y411931D01*
X256961Y411229D01*
X207812Y362080D01*
X206673Y362738D01*
X206860Y363434D01*
Y365546D01*
X206313Y367586D01*
X205258Y369414D01*
X203764Y370908D01*
X201936Y371964D01*
X199896Y372510D01*
X197784D01*
X195744Y371964D01*
X193916Y370908D01*
X192422Y369414D01*
X191367Y367586D01*
X190820Y365546D01*
Y363434D01*
X191367Y361394D01*
X192422Y359566D01*
X193916Y358072D01*
X195744Y357016D01*
X197784Y356470D01*
X199896D01*
X200592Y356657D01*
X201250Y355518D01*
X196551Y350819D01*
X195849Y349769D01*
X195603Y348530D01*
Y341402D01*
X193916Y340428D01*
X192422Y338934D01*
X191367Y337106D01*
X190820Y335066D01*
Y332954D01*
X191367Y330914D01*
X192422Y329086D01*
X193916Y327592D01*
X195744Y326536D01*
X197784Y325990D01*
X199896D01*
X201936Y326536D01*
X203764Y327592D01*
X205258Y329086D01*
X206313Y330914D01*
X206860Y332954D01*
Y335066D01*
X206313Y337106D01*
X205258Y338934D01*
X203764Y340428D01*
X202077Y341402D01*
Y347189D01*
X260591Y405703D01*
X289489D01*
X293394Y401798D01*
X292614Y400782D01*
X291936Y401174D01*
X289896Y401720D01*
X287784D01*
X285744Y401174D01*
X283916Y400118D01*
X282422Y398624D01*
X281367Y396796D01*
X280820Y394756D01*
Y392644D01*
X281367Y390604D01*
X282422Y388776D01*
X283916Y387282D01*
X285603Y386308D01*
Y372510D01*
X280820D01*
Y356470D01*
X292282D01*
X299023Y349729D01*
Y135890D01*
X299269Y134651D01*
X299971Y133601D01*
X358391Y75181D01*
X359441Y74479D01*
X360680Y74233D01*
X378340D01*
Y70200D01*
X392880D01*
Y74356D01*
X395093D01*
X396332Y74602D01*
X397382Y75304D01*
X402339Y80261D01*
X403041Y81311D01*
X403287Y82550D01*
Y203129D01*
X426791Y226633D01*
X497840D01*
X499079Y226879D01*
X500129Y227581D01*
X532422Y259874D01*
X532555Y259798D01*
X534785Y259200D01*
X537095D01*
X539325Y259798D01*
X541325Y260952D01*
X542958Y262585D01*
X544112Y264585D01*
X544710Y266815D01*
Y269125D01*
X544112Y271355D01*
X542958Y273355D01*
X541325Y274988D01*
X539325Y276142D01*
X539249Y276163D01*
X539416Y277433D01*
X547299D01*
X553244Y271488D01*
X553168Y271355D01*
X552570Y269125D01*
Y266815D01*
X553168Y264585D01*
X554322Y262585D01*
X555955Y260952D01*
X557955Y259798D01*
X560185Y259200D01*
X562495D01*
X564725Y259798D01*
X566725Y260952D01*
X568358Y262585D01*
X569512Y264585D01*
X570110Y266815D01*
Y269125D01*
X569512Y271355D01*
X568358Y273355D01*
X566725Y274988D01*
X564725Y276142D01*
X562495Y276740D01*
X560185D01*
X557955Y276142D01*
X557822Y276066D01*
X550929Y282959D01*
X549879Y283661D01*
X548640Y283907D01*
X469066D01*
X467827Y283661D01*
X466777Y282959D01*
X424995Y241177D01*
X367472D01*
X367432Y241325D01*
X366278Y243325D01*
X364645Y244958D01*
X362645Y246112D01*
X360415Y246710D01*
X358105D01*
X355875Y246112D01*
X353875Y244958D01*
X352242Y243325D01*
X351088Y241325D01*
X350490Y239095D01*
Y236785D01*
X351088Y234555D01*
X352242Y232555D01*
X353875Y230922D01*
X355875Y229768D01*
X358105Y229170D01*
X360415D01*
X362645Y229768D01*
X364645Y230922D01*
X366278Y232555D01*
X367432Y234555D01*
X367472Y234703D01*
X426336D01*
X427575Y234949D01*
X428625Y235651D01*
X470407Y277433D01*
X507064D01*
X507231Y276163D01*
X507155Y276142D01*
X505155Y274988D01*
X503522Y273355D01*
X502368Y271355D01*
X501770Y269125D01*
Y268605D01*
X510540D01*
X519310D01*
Y269125D01*
X518712Y271355D01*
X517558Y273355D01*
X515925Y274988D01*
X513925Y276142D01*
X513849Y276163D01*
X514016Y277433D01*
X532464D01*
X532631Y276163D01*
X532555Y276142D01*
X530555Y274988D01*
X528922Y273355D01*
X527768Y271355D01*
X527170Y269125D01*
Y266815D01*
X527768Y264585D01*
X527844Y264452D01*
X496499Y233107D01*
X425450D01*
X424211Y232861D01*
X423161Y232159D01*
X397761Y206759D01*
X397059Y205709D01*
X396813Y204470D01*
Y83891D01*
X394150Y81228D01*
X392880Y81754D01*
Y84740D01*
X378340D01*
Y80707D01*
X362021D01*
X305497Y137231D01*
Y351070D01*
X305251Y352309D01*
X304549Y353359D01*
X296860Y361048D01*
Y372510D01*
X292077D01*
Y386308D01*
X293764Y387282D01*
X295258Y388776D01*
X296313Y390604D01*
X296860Y392644D01*
Y394756D01*
X296313Y396796D01*
X295922Y397474D01*
X296938Y398254D01*
X311723Y383469D01*
Y257240D01*
X311969Y256001D01*
X312671Y254951D01*
X351164Y216458D01*
X351088Y216325D01*
X350490Y214095D01*
Y211785D01*
X351088Y209555D01*
X352242Y207555D01*
X353875Y205922D01*
X355875Y204768D01*
X358105Y204170D01*
X360415D01*
X362645Y204768D01*
X364645Y205922D01*
X366278Y207555D01*
X367432Y209555D01*
X368030Y211785D01*
Y214095D01*
X367432Y216325D01*
X366278Y218325D01*
X364645Y219958D01*
X362645Y221112D01*
X360415Y221710D01*
X358105D01*
X355875Y221112D01*
X355742Y221036D01*
X318197Y258581D01*
Y384810D01*
X317951Y386049D01*
X317249Y387099D01*
X293119Y411229D01*
X292069Y411931D01*
X290830Y412177D01*
D02*
G37*
G36*
X454110Y414655D02*
X434975D01*
Y395520D01*
X436287D01*
X440107Y396280D01*
X443705Y397770D01*
X446943Y399934D01*
X449696Y402687D01*
X451860Y405925D01*
X453350Y409523D01*
X454110Y413343D01*
Y414655D01*
D02*
G37*
G36*
X433705D02*
X414570D01*
Y413343D01*
X415330Y409523D01*
X416820Y405925D01*
X418984Y402687D01*
X421737Y399934D01*
X424975Y397770D01*
X428573Y396280D01*
X432393Y395520D01*
X433705D01*
Y414655D01*
D02*
G37*
G36*
X48980D02*
X29845D01*
Y395520D01*
X31157D01*
X34977Y396280D01*
X38575Y397770D01*
X41813Y399934D01*
X44566Y402687D01*
X46730Y405925D01*
X48220Y409523D01*
X48980Y413343D01*
Y414655D01*
D02*
G37*
G36*
X28575D02*
X9440D01*
Y413343D01*
X10200Y409523D01*
X11690Y405925D01*
X13854Y402687D01*
X16607Y399934D01*
X19845Y397770D01*
X23443Y396280D01*
X27263Y395520D01*
X28575D01*
Y414655D01*
D02*
G37*
G36*
X206860Y401720D02*
X199475D01*
Y394335D01*
X206860D01*
Y401720D01*
D02*
G37*
G36*
X198205D02*
X190820D01*
Y394335D01*
X198205D01*
Y401720D01*
D02*
G37*
G36*
X206860Y393065D02*
X199475D01*
Y385680D01*
X206860D01*
Y393065D01*
D02*
G37*
G36*
X198205D02*
X190820D01*
Y385680D01*
X198205D01*
Y393065D01*
D02*
G37*
G36*
X142973Y392160D02*
X139867D01*
X136820Y391554D01*
X133950Y390365D01*
X131367Y388639D01*
X129171Y386443D01*
X127445Y383860D01*
X126256Y380990D01*
X125985Y379627D01*
X116040D01*
X114801Y379381D01*
X113751Y378679D01*
X91131Y356059D01*
X90429Y355009D01*
X90183Y353770D01*
Y299139D01*
X88158Y298737D01*
X84875Y297377D01*
X81920Y295403D01*
X79407Y292890D01*
X77433Y289935D01*
X76073Y286652D01*
X75380Y283167D01*
Y279613D01*
X76073Y276128D01*
X77433Y272845D01*
X79407Y269890D01*
X81920Y267377D01*
X84875Y265403D01*
X88158Y264043D01*
X90223Y263633D01*
Y60210D01*
X90469Y58971D01*
X91171Y57921D01*
X115821Y33271D01*
X116871Y32569D01*
X118110Y32323D01*
X566420D01*
X567659Y32569D01*
X568709Y33271D01*
X604269Y68831D01*
X604971Y69881D01*
X605217Y71120D01*
Y86023D01*
X606325Y86662D01*
X608028Y88365D01*
X609232Y90450D01*
X609855Y92776D01*
Y95184D01*
X609232Y97510D01*
X608028Y99595D01*
X606325Y101298D01*
X604240Y102502D01*
X601914Y103125D01*
X599506D01*
X597180Y102502D01*
X595095Y101298D01*
X593392Y99595D01*
X592188Y97510D01*
X591565Y95184D01*
Y92776D01*
X592188Y90450D01*
X593392Y88365D01*
X595095Y86662D01*
X597180Y85458D01*
X598743Y85040D01*
Y72461D01*
X565079Y38797D01*
X119451D01*
X96697Y61551D01*
Y263648D01*
X98682Y264043D01*
X101965Y265403D01*
X104920Y267377D01*
X107433Y269890D01*
X109407Y272845D01*
X110767Y276128D01*
X111460Y279613D01*
Y283167D01*
X110767Y286652D01*
X109407Y289935D01*
X107433Y292890D01*
X104920Y295403D01*
X101965Y297377D01*
X98682Y298737D01*
X96657Y299139D01*
Y352429D01*
X117381Y373153D01*
X125985D01*
X126256Y371790D01*
X127445Y368920D01*
X127909Y368225D01*
X127146Y367082D01*
X124743Y367560D01*
X121637D01*
X118590Y366954D01*
X115720Y365765D01*
X113137Y364039D01*
X110941Y361843D01*
X109215Y359260D01*
X108026Y356390D01*
X107420Y353343D01*
Y350237D01*
X108026Y347190D01*
X109215Y344320D01*
X110941Y341737D01*
X113137Y339541D01*
X115720Y337815D01*
X118590Y336626D01*
X121637Y336020D01*
X124743D01*
X127790Y336626D01*
X130660Y337815D01*
X133243Y339541D01*
X135439Y341737D01*
X137165Y344320D01*
X138354Y347190D01*
X138960Y350237D01*
Y353343D01*
X138354Y356390D01*
X137165Y359260D01*
X136701Y359955D01*
X137465Y361098D01*
X139867Y360620D01*
X142973D01*
X146020Y361226D01*
X148890Y362415D01*
X151473Y364141D01*
X153669Y366337D01*
X155395Y368920D01*
X156584Y371790D01*
X157190Y374837D01*
Y377943D01*
X156584Y380990D01*
X155395Y383860D01*
X153669Y386443D01*
X151473Y388639D01*
X148890Y390365D01*
X146020Y391554D01*
X142973Y392160D01*
D02*
G37*
G36*
X399786Y364515D02*
X399415D01*
Y357505D01*
X406425D01*
Y357877D01*
X405904Y359821D01*
X404897Y361564D01*
X403474Y362988D01*
X401731Y363994D01*
X399786Y364515D01*
D02*
G37*
G36*
X398145D02*
X397774D01*
X395829Y363994D01*
X394086Y362988D01*
X392663Y361564D01*
X391656Y359821D01*
X391135Y357877D01*
Y357505D01*
X398145D01*
Y364515D01*
D02*
G37*
G36*
X406425Y356235D02*
X399415D01*
Y349225D01*
X399786D01*
X401731Y349746D01*
X403474Y350752D01*
X404897Y352176D01*
X405904Y353919D01*
X406425Y355863D01*
Y356235D01*
D02*
G37*
G36*
X398145D02*
X391135D01*
Y355863D01*
X391656Y353919D01*
X392663Y352176D01*
X394086Y350752D01*
X395829Y349746D01*
X397774Y349225D01*
X398145D01*
Y356235D01*
D02*
G37*
G36*
X356425Y364515D02*
X341135D01*
Y349225D01*
X356425D01*
Y364515D01*
D02*
G37*
G36*
X76460Y344430D02*
X59055D01*
Y327025D01*
X76460D01*
Y344430D01*
D02*
G37*
G36*
X57785D02*
X40380D01*
Y327025D01*
X57785D01*
Y344430D01*
D02*
G37*
G36*
X506900Y332105D02*
X501015D01*
Y326220D01*
X506900D01*
Y332105D01*
D02*
G37*
G36*
X499745D02*
X493860D01*
Y326220D01*
X499745D01*
Y332105D01*
D02*
G37*
G36*
X76460Y325755D02*
X59055D01*
Y308350D01*
X76460D01*
Y325755D01*
D02*
G37*
G36*
X57785D02*
X40380D01*
Y308350D01*
X57785D01*
Y325755D01*
D02*
G37*
G36*
X644567Y323300D02*
X643255D01*
Y304165D01*
X662390D01*
Y305477D01*
X661630Y309297D01*
X660140Y312895D01*
X657976Y316133D01*
X655223Y318886D01*
X651985Y321050D01*
X648387Y322540D01*
X644567Y323300D01*
D02*
G37*
G36*
X641985D02*
X640673D01*
X636853Y322540D01*
X633255Y321050D01*
X630017Y318886D01*
X627264Y316133D01*
X625100Y312895D01*
X623610Y309297D01*
X622850Y305477D01*
Y304165D01*
X641985D01*
Y323300D01*
D02*
G37*
G36*
X296860Y342030D02*
X280820D01*
Y325990D01*
X285603D01*
Y315581D01*
X262819Y292797D01*
X236768D01*
X236237Y293717D01*
X234977Y294977D01*
X233433Y295869D01*
X231711Y296330D01*
X229929D01*
X228207Y295869D01*
X226663Y294977D01*
X225403Y293717D01*
X224511Y292173D01*
X224050Y290451D01*
Y288669D01*
X224511Y286947D01*
X225403Y285403D01*
X226663Y284143D01*
X228207Y283251D01*
X229929Y282790D01*
X231711D01*
X233433Y283251D01*
X234977Y284143D01*
X236237Y285403D01*
X236768Y286323D01*
X264160D01*
X265399Y286569D01*
X266449Y287271D01*
X291129Y311951D01*
X291831Y313001D01*
X292077Y314240D01*
Y325990D01*
X296860D01*
Y342030D01*
D02*
G37*
G36*
X662390Y302895D02*
X643255D01*
Y283760D01*
X644567D01*
X648387Y284520D01*
X651985Y286010D01*
X655223Y288174D01*
X657976Y290927D01*
X660140Y294165D01*
X661630Y297763D01*
X662390Y301583D01*
Y302895D01*
D02*
G37*
G36*
X641985D02*
X622850D01*
Y301583D01*
X623610Y297763D01*
X625100Y294165D01*
X627264Y290927D01*
X630017Y288174D01*
X633255Y286010D01*
X636853Y284520D01*
X640673Y283760D01*
X641985D01*
Y302895D01*
D02*
G37*
G36*
X171197Y302430D02*
X167643D01*
X164158Y301737D01*
X160875Y300377D01*
X157920Y298403D01*
X155407Y295890D01*
X153433Y292935D01*
X152073Y289652D01*
X151380Y286167D01*
Y282613D01*
X152073Y279128D01*
X153433Y275845D01*
X155407Y272890D01*
X157920Y270377D01*
X160875Y268403D01*
X164158Y267043D01*
X167643Y266350D01*
X171197D01*
X174682Y267043D01*
X177965Y268403D01*
X180920Y270377D01*
X183433Y272890D01*
X185407Y275845D01*
X186767Y279128D01*
X187460Y282613D01*
Y286167D01*
X186767Y289652D01*
X185407Y292935D01*
X183433Y295890D01*
X180920Y298403D01*
X177965Y300377D01*
X174682Y301737D01*
X171197Y302430D01*
D02*
G37*
G36*
X431355Y303210D02*
X427165D01*
X423056Y302393D01*
X419185Y300789D01*
X415701Y298461D01*
X412738Y295499D01*
X410411Y292015D01*
X408807Y288144D01*
X407990Y284035D01*
Y279845D01*
X408807Y275736D01*
X410411Y271865D01*
X412738Y268381D01*
X415701Y265418D01*
X419185Y263091D01*
X423056Y261487D01*
X427165Y260670D01*
X431355D01*
X435464Y261487D01*
X439335Y263091D01*
X442819Y265418D01*
X445782Y268381D01*
X448109Y271865D01*
X449713Y275736D01*
X450530Y279845D01*
Y284035D01*
X449713Y288144D01*
X448109Y292015D01*
X445782Y295499D01*
X442819Y298461D01*
X439335Y300789D01*
X435464Y302393D01*
X431355Y303210D01*
D02*
G37*
G36*
X519310Y267335D02*
X511175D01*
Y259200D01*
X511695D01*
X513925Y259798D01*
X515925Y260952D01*
X517558Y262585D01*
X518712Y264585D01*
X519310Y266815D01*
Y267335D01*
D02*
G37*
G36*
X509905D02*
X501770D01*
Y266815D01*
X502368Y264585D01*
X503522Y262585D01*
X505155Y260952D01*
X507155Y259798D01*
X509385Y259200D01*
X509905D01*
Y267335D01*
D02*
G37*
G36*
X646413Y246610D02*
X645795D01*
Y237725D01*
X654680D01*
Y238343D01*
X654031Y240765D01*
X652778Y242935D01*
X651005Y244708D01*
X648835Y245961D01*
X646413Y246610D01*
D02*
G37*
G36*
X644525D02*
X643907D01*
X641485Y245961D01*
X639315Y244708D01*
X637542Y242935D01*
X636289Y240765D01*
X635640Y238343D01*
Y237725D01*
X644525D01*
Y246610D01*
D02*
G37*
G36*
X654680Y236455D02*
X645795D01*
Y227570D01*
X646413D01*
X648835Y228219D01*
X651005Y229472D01*
X652778Y231245D01*
X654031Y233415D01*
X654680Y235837D01*
Y236455D01*
D02*
G37*
G36*
X644525D02*
X635640D01*
Y235837D01*
X636289Y233415D01*
X637542Y231245D01*
X639315Y229472D01*
X641485Y228219D01*
X643907Y227570D01*
X644525D01*
Y236455D01*
D02*
G37*
G36*
X261097Y249490D02*
X257603D01*
X254228Y248586D01*
X251202Y246839D01*
X248731Y244368D01*
X246984Y241342D01*
X246080Y237967D01*
Y234473D01*
X246984Y231098D01*
X248731Y228072D01*
X251202Y225601D01*
X254228Y223854D01*
X257603Y222950D01*
X261097D01*
X264472Y223854D01*
X267498Y225601D01*
X269969Y228072D01*
X271716Y231098D01*
X272620Y234473D01*
Y237967D01*
X271716Y241342D01*
X269969Y244368D01*
X267498Y246839D01*
X264472Y248586D01*
X261097Y249490D01*
D02*
G37*
G36*
X198097D02*
X194603D01*
X191228Y248586D01*
X188202Y246839D01*
X185731Y244368D01*
X183984Y241342D01*
X183080Y237967D01*
Y234473D01*
X183984Y231098D01*
X185731Y228072D01*
X188202Y225601D01*
X191228Y223854D01*
X194603Y222950D01*
X198097D01*
X201472Y223854D01*
X204498Y225601D01*
X206969Y228072D01*
X208716Y231098D01*
X209620Y234473D01*
Y237967D01*
X208716Y241342D01*
X206969Y244368D01*
X204498Y246839D01*
X201472Y248586D01*
X198097Y249490D01*
D02*
G37*
G36*
X146620D02*
X120080D01*
Y222950D01*
X146620D01*
Y249490D01*
D02*
G37*
G36*
X654680Y221610D02*
X635640D01*
Y202570D01*
X654680D01*
Y221610D01*
D02*
G37*
G36*
X587895Y200540D02*
X585585D01*
X583355Y199942D01*
X581355Y198788D01*
X579722Y197155D01*
X578568Y195155D01*
X577970Y192925D01*
Y190615D01*
X578568Y188385D01*
X579722Y186385D01*
X581355Y184752D01*
X583355Y183598D01*
X585585Y183000D01*
X587895D01*
X590125Y183598D01*
X592125Y184752D01*
X593758Y186385D01*
X594912Y188385D01*
X595510Y190615D01*
Y192925D01*
X594912Y195155D01*
X593758Y197155D01*
X592125Y198788D01*
X590125Y199942D01*
X587895Y200540D01*
D02*
G37*
G36*
X562495D02*
X560185D01*
X557955Y199942D01*
X555955Y198788D01*
X554322Y197155D01*
X553168Y195155D01*
X552570Y192925D01*
Y190615D01*
X553168Y188385D01*
X554322Y186385D01*
X555955Y184752D01*
X557955Y183598D01*
X560185Y183000D01*
X562495D01*
X564725Y183598D01*
X566725Y184752D01*
X568358Y186385D01*
X569512Y188385D01*
X570110Y190615D01*
Y192925D01*
X569512Y195155D01*
X568358Y197155D01*
X566725Y198788D01*
X564725Y199942D01*
X562495Y200540D01*
D02*
G37*
G36*
X537095D02*
X534785D01*
X532555Y199942D01*
X530555Y198788D01*
X528922Y197155D01*
X527768Y195155D01*
X527170Y192925D01*
Y190615D01*
X527768Y188385D01*
X528922Y186385D01*
X530555Y184752D01*
X532555Y183598D01*
X534785Y183000D01*
X537095D01*
X539325Y183598D01*
X541325Y184752D01*
X542958Y186385D01*
X544112Y188385D01*
X544710Y190615D01*
Y192925D01*
X544112Y195155D01*
X542958Y197155D01*
X541325Y198788D01*
X539325Y199942D01*
X537095Y200540D01*
D02*
G37*
G36*
X511695D02*
X509385D01*
X507155Y199942D01*
X505155Y198788D01*
X503522Y197155D01*
X502368Y195155D01*
X501770Y192925D01*
Y190615D01*
X502368Y188385D01*
X503522Y186385D01*
X505155Y184752D01*
X507155Y183598D01*
X509385Y183000D01*
X511695D01*
X513925Y183598D01*
X515925Y184752D01*
X517558Y186385D01*
X518712Y188385D01*
X519310Y190615D01*
Y192925D01*
X518712Y195155D01*
X517558Y197155D01*
X515925Y198788D01*
X513925Y199942D01*
X511695Y200540D01*
D02*
G37*
G36*
X431355Y215210D02*
X427165D01*
X423056Y214393D01*
X419185Y212789D01*
X415701Y210462D01*
X412738Y207499D01*
X410411Y204015D01*
X408807Y200144D01*
X407990Y196035D01*
Y191845D01*
X408807Y187736D01*
X410411Y183865D01*
X412738Y180381D01*
X415701Y177418D01*
X419185Y175091D01*
X423056Y173487D01*
X427165Y172670D01*
X431355D01*
X435464Y173487D01*
X439335Y175091D01*
X442819Y177418D01*
X445782Y180381D01*
X448109Y183865D01*
X449713Y187736D01*
X450530Y191845D01*
Y196035D01*
X449713Y200144D01*
X448109Y204015D01*
X445782Y207499D01*
X442819Y210462D01*
X439335Y212789D01*
X435464Y214393D01*
X431355Y215210D01*
D02*
G37*
G36*
X492760Y368997D02*
X433641D01*
X432402Y368751D01*
X431352Y368049D01*
X357429Y294126D01*
X356727Y293076D01*
X356481Y291837D01*
Y288680D01*
X356727Y287442D01*
X356765Y287385D01*
Y271351D01*
X355875Y271112D01*
X353875Y269958D01*
X352242Y268325D01*
X351088Y266325D01*
X350490Y264095D01*
Y261785D01*
X351088Y259555D01*
X352242Y257555D01*
X353875Y255922D01*
X355875Y254768D01*
X358105Y254170D01*
X360415D01*
X362645Y254768D01*
X364645Y255922D01*
X366278Y257555D01*
X367432Y259555D01*
X368030Y261785D01*
Y264095D01*
X367432Y266325D01*
X367356Y266458D01*
X374648Y273750D01*
X417701Y316803D01*
X443920D01*
X444363Y316037D01*
X445577Y314823D01*
X447063Y313964D01*
X448722Y313520D01*
X450438D01*
X452097Y313964D01*
X453583Y314823D01*
X454797Y316037D01*
X455656Y317523D01*
X456100Y319182D01*
Y320898D01*
X455656Y322557D01*
X454797Y324043D01*
X453583Y325257D01*
X452892Y325657D01*
Y327123D01*
X453583Y327523D01*
X454092Y328032D01*
X460917D01*
X471743Y317206D01*
Y298450D01*
X471989Y297211D01*
X472691Y296161D01*
X482336Y286516D01*
X483386Y285814D01*
X484625Y285568D01*
X564564D01*
X577970Y272162D01*
Y259200D01*
X595510D01*
Y272162D01*
X602999Y279651D01*
X603701Y280701D01*
X603947Y281940D01*
Y295183D01*
X603701Y296422D01*
X602999Y297472D01*
X602795Y297677D01*
X603653Y299164D01*
X604200Y301204D01*
Y303316D01*
X603653Y305356D01*
X602598Y307184D01*
X601104Y308678D01*
X599276Y309734D01*
X597236Y310280D01*
X595124D01*
X593084Y309734D01*
X591256Y308678D01*
X589762Y307184D01*
X588707Y305356D01*
X588160Y303316D01*
Y301204D01*
X588707Y299164D01*
X589762Y297336D01*
X591256Y295842D01*
X593084Y294786D01*
X595124Y294240D01*
X597075D01*
X597473Y293842D01*
Y283281D01*
X590932Y276740D01*
X582548D01*
X568194Y291094D01*
X567144Y291796D01*
X565905Y292042D01*
X485966D01*
X478217Y299791D01*
Y317758D01*
X484776Y330337D01*
X492590Y338152D01*
X493860Y337626D01*
Y333375D01*
X500380D01*
X506900D01*
Y339260D01*
X505125D01*
X504691Y340530D01*
X505597Y341437D01*
X506456Y342923D01*
X506900Y344582D01*
Y345246D01*
X508170Y345772D01*
X511725Y342217D01*
Y312383D01*
X509622Y310280D01*
X498160D01*
Y294240D01*
X514200D01*
Y304261D01*
X526742Y316803D01*
X600639D01*
X606363Y311079D01*
Y179211D01*
X530277Y103125D01*
X516565D01*
Y84835D01*
X534855D01*
Y98547D01*
X611889Y175581D01*
X612591Y176631D01*
X612837Y177870D01*
Y312420D01*
X612591Y313659D01*
X611889Y314709D01*
X604269Y322329D01*
X603219Y323031D01*
X601980Y323277D01*
X542124D01*
X507816Y355282D01*
X506671Y356427D01*
X506900Y357282D01*
Y358998D01*
X506456Y360657D01*
X505597Y362143D01*
X504383Y363357D01*
X502897Y364216D01*
X501238Y364660D01*
X499522D01*
X498667Y364431D01*
X495049Y368049D01*
X493999Y368751D01*
X492760Y368997D01*
D02*
G37*
G36*
X436567Y84740D02*
X436245D01*
Y78105D01*
X442880D01*
Y78427D01*
X442385Y80276D01*
X441427Y81934D01*
X440074Y83287D01*
X438416Y84245D01*
X436567Y84740D01*
D02*
G37*
G36*
X434975D02*
X434653D01*
X432804Y84245D01*
X431146Y83287D01*
X429793Y81934D01*
X428835Y80276D01*
X428340Y78427D01*
Y78105D01*
X434975D01*
Y84740D01*
D02*
G37*
G36*
X261097Y87490D02*
X259985D01*
Y74855D01*
X272620D01*
Y75967D01*
X271716Y79342D01*
X269969Y82368D01*
X267498Y84839D01*
X264472Y86586D01*
X261097Y87490D01*
D02*
G37*
G36*
X258715D02*
X257603D01*
X254228Y86586D01*
X251202Y84839D01*
X248731Y82368D01*
X246984Y79342D01*
X246080Y75967D01*
Y74855D01*
X258715D01*
Y87490D01*
D02*
G37*
G36*
X442880Y76835D02*
X436245D01*
Y70200D01*
X436567D01*
X438416Y70695D01*
X440074Y71653D01*
X441427Y73006D01*
X442385Y74664D01*
X442880Y76513D01*
Y76835D01*
D02*
G37*
G36*
X434975D02*
X428340D01*
Y76513D01*
X428835Y74664D01*
X429793Y73006D01*
X431146Y71653D01*
X432804Y70695D01*
X434653Y70200D01*
X434975D01*
Y76835D01*
D02*
G37*
G36*
X272620Y73585D02*
X259985D01*
Y60950D01*
X261097D01*
X264472Y61854D01*
X267498Y63601D01*
X269969Y66072D01*
X271716Y69098D01*
X272620Y72473D01*
Y73585D01*
D02*
G37*
G36*
X258715D02*
X246080D01*
Y72473D01*
X246984Y69098D01*
X248731Y66072D01*
X251202Y63601D01*
X254228Y61854D01*
X257603Y60950D01*
X258715D01*
Y73585D01*
D02*
G37*
G36*
X198097Y87490D02*
X194603D01*
X191228Y86586D01*
X188202Y84839D01*
X185731Y82368D01*
X183984Y79342D01*
X183080Y75967D01*
Y72473D01*
X183984Y69098D01*
X185731Y66072D01*
X188202Y63601D01*
X191228Y61854D01*
X194603Y60950D01*
X198097D01*
X201472Y61854D01*
X204498Y63601D01*
X206969Y66072D01*
X208716Y69098D01*
X209620Y72473D01*
Y75967D01*
X208716Y79342D01*
X206969Y82368D01*
X204498Y84839D01*
X201472Y86586D01*
X198097Y87490D01*
D02*
G37*
G36*
X217590Y296330D02*
X204050D01*
Y282790D01*
X207583D01*
Y274320D01*
X207829Y273081D01*
X208531Y272031D01*
X213933Y266629D01*
Y189301D01*
X131061Y106429D01*
X130359Y105379D01*
X130113Y104140D01*
Y87091D01*
X128228Y86586D01*
X125202Y84839D01*
X122731Y82368D01*
X120984Y79342D01*
X120080Y75967D01*
Y72473D01*
X120984Y69098D01*
X122731Y66072D01*
X125202Y63601D01*
X128228Y61854D01*
X131603Y60950D01*
X135097D01*
X138472Y61854D01*
X141498Y63601D01*
X143969Y66072D01*
X145716Y69098D01*
X146620Y72473D01*
Y75967D01*
X145716Y79342D01*
X143969Y82368D01*
X141498Y84839D01*
X138472Y86586D01*
X136587Y87091D01*
Y102799D01*
X219459Y185671D01*
X220161Y186721D01*
X220407Y187960D01*
Y267970D01*
X220161Y269209D01*
X219459Y270259D01*
X214057Y275661D01*
Y282790D01*
X217590D01*
Y296330D01*
D02*
G37*
G36*
X658537Y48980D02*
X657225D01*
Y29845D01*
X676360D01*
Y31157D01*
X675600Y34977D01*
X674110Y38575D01*
X671946Y41813D01*
X669193Y44566D01*
X665955Y46730D01*
X662357Y48220D01*
X658537Y48980D01*
D02*
G37*
G36*
X655955D02*
X654643D01*
X650823Y48220D01*
X647225Y46730D01*
X643987Y44566D01*
X641234Y41813D01*
X639070Y38575D01*
X637580Y34977D01*
X636820Y31157D01*
Y29845D01*
X655955D01*
Y48980D01*
D02*
G37*
G36*
X31157D02*
X29845D01*
Y29845D01*
X48980D01*
Y31157D01*
X48220Y34977D01*
X46730Y38575D01*
X44566Y41813D01*
X41813Y44566D01*
X38575Y46730D01*
X34977Y48220D01*
X31157Y48980D01*
D02*
G37*
G36*
X28575D02*
X27263D01*
X23443Y48220D01*
X19845Y46730D01*
X16607Y44566D01*
X13854Y41813D01*
X11690Y38575D01*
X10200Y34977D01*
X9440Y31157D01*
Y29845D01*
X28575D01*
Y48980D01*
D02*
G37*
G36*
X676360Y28575D02*
X657225D01*
Y9440D01*
X658537D01*
X662357Y10200D01*
X665955Y11690D01*
X669193Y13854D01*
X671946Y16607D01*
X674110Y19845D01*
X675600Y23443D01*
X676360Y27263D01*
Y28575D01*
D02*
G37*
G36*
X655955D02*
X636820D01*
Y27263D01*
X637580Y23443D01*
X639070Y19845D01*
X641234Y16607D01*
X643987Y13854D01*
X647225Y11690D01*
X650823Y10200D01*
X654643Y9440D01*
X655955D01*
Y28575D01*
D02*
G37*
G36*
X48980D02*
X29845D01*
Y9440D01*
X31157D01*
X34977Y10200D01*
X38575Y11690D01*
X41813Y13854D01*
X44566Y16607D01*
X46730Y19845D01*
X48220Y23443D01*
X48980Y27263D01*
Y28575D01*
D02*
G37*
G36*
X28575D02*
X9440D01*
Y27263D01*
X10200Y23443D01*
X11690Y19845D01*
X13854Y16607D01*
X16607Y13854D01*
X19845Y11690D01*
X23443Y10200D01*
X27263Y9440D01*
X28575D01*
Y28575D01*
D02*
G37*
%LPD*%
G36*
X494089Y359853D02*
X493860Y358998D01*
Y357282D01*
X494304Y355623D01*
X495163Y354137D01*
X496377Y352923D01*
X497068Y352523D01*
Y351057D01*
X496377Y350657D01*
X495163Y349443D01*
X494304Y347957D01*
X494154Y347397D01*
X494020D01*
X492781Y347151D01*
X491731Y346449D01*
X480624Y335342D01*
X455606D01*
X454797Y336743D01*
X453891Y337650D01*
X454325Y338920D01*
X456100D01*
Y351960D01*
X443060D01*
Y338920D01*
X444835D01*
X445269Y337650D01*
X444363Y336743D01*
X443504Y335257D01*
X443060Y333598D01*
Y331882D01*
X443504Y330223D01*
X444006Y329354D01*
X442990Y328574D01*
X439525Y332039D01*
Y354225D01*
X441960D01*
X442932Y354628D01*
X442932Y354628D01*
X450827Y362523D01*
X491419D01*
X494089Y359853D01*
D02*
G37*
G36*
X475456Y315436D02*
X461486Y329406D01*
X452596D01*
X451009Y330994D01*
X485140Y334010D01*
X475456Y315436D01*
D02*
G37*
G36*
X543895Y319745D02*
X527740D01*
X513100Y305105D01*
Y345440D01*
X505460Y355600D01*
X543895Y319745D01*
D02*
G37*
G36*
X441960Y355600D02*
X438150D01*
Y331470D01*
X447040Y322580D01*
Y320040D01*
X416360D01*
X358140Y261820D01*
Y292100D01*
X419100Y353060D01*
X431800Y365760D01*
X452120D01*
X441960Y355600D01*
D02*
G37*
D38*
X500380Y332740D02*
D03*
X449580Y345440D02*
D03*
D39*
X500380D02*
D03*
Y358140D02*
D03*
X449580Y332740D02*
D03*
Y320040D02*
D03*
D40*
X506180Y302260D02*
D03*
X288840Y334010D02*
D03*
Y364490D02*
D03*
X198840Y393700D02*
D03*
D41*
X596180Y302260D02*
D03*
X198840Y334010D02*
D03*
X288840Y393700D02*
D03*
X198840Y364490D02*
D03*
D42*
X123190Y351790D02*
D03*
X141420Y376390D02*
D03*
D43*
X169420Y284390D02*
D03*
X93420Y281390D02*
D03*
D44*
X58420Y326390D02*
D03*
D45*
X259350Y74220D02*
D03*
X196350D02*
D03*
X133350D02*
D03*
X259350Y236220D02*
D03*
X196350D02*
D03*
D46*
X133350D02*
D03*
D47*
X434340Y415290D02*
D03*
X29210D02*
D03*
X642620Y303530D02*
D03*
X656590Y29210D02*
D03*
X29210D02*
D03*
D48*
X429260Y281940D02*
D03*
Y193940D02*
D03*
D49*
X359260Y262940D02*
D03*
Y237940D02*
D03*
Y212940D02*
D03*
X510540Y191770D02*
D03*
X535940D02*
D03*
X561340D02*
D03*
X586740D02*
D03*
X510540Y267970D02*
D03*
X535940D02*
D03*
X561340D02*
D03*
D50*
X600710Y93980D02*
D03*
D51*
X525710D02*
D03*
D52*
X586740Y267970D02*
D03*
D53*
X645160Y237090D02*
D03*
D54*
Y212090D02*
D03*
D55*
X435610Y77470D02*
D03*
D56*
X385610D02*
D03*
D57*
X230820Y289560D02*
D03*
D58*
X210820D02*
D03*
D59*
X348780Y356870D02*
D03*
D60*
X398780D02*
D03*
D61*
X492760Y365760D02*
X515620Y342900D01*
Y315510D02*
Y342900D01*
X494020Y344160D02*
X499100D01*
X474980Y332105D02*
X481965D01*
X499100Y344160D02*
X500380Y345440D01*
X481965Y332105D02*
X494020Y344160D01*
X433641Y365760D02*
X492760D01*
X515620Y315510D02*
X520157Y320047D01*
X521970D01*
X523720Y320040D01*
X515620Y311700D02*
Y315510D01*
X601980Y320040D02*
X609600Y312420D01*
X523720Y320040D02*
X601980D01*
X449580Y332740D02*
X450215Y332105D01*
X474980D01*
X449580Y320040D02*
X450215Y319405D01*
X474980Y298450D02*
Y332105D01*
X93420Y353770D02*
X116040Y376390D01*
X141420D01*
X426336Y237940D02*
X469066Y280670D01*
X359260Y237940D02*
X426336D01*
X596180Y299713D02*
Y302260D01*
X600710Y281940D02*
Y295183D01*
X586740Y267970D02*
X600710Y281940D01*
X596180Y299713D02*
X600710Y295183D01*
X359718Y291837D02*
X433641Y365760D01*
X210820Y274320D02*
X217170Y267970D01*
X210820Y274320D02*
Y289560D01*
X506180Y302260D02*
X515620Y311700D01*
X548640Y280670D02*
X561340Y267970D01*
X469066Y280670D02*
X548640D01*
X400050Y204470D02*
X425450Y229870D01*
X497840D02*
X535940Y267970D01*
X425450Y229870D02*
X497840D01*
X474980Y298450D02*
X484625Y288805D01*
X565905D01*
X359260Y262940D02*
X372359Y276039D01*
X359718Y288680D02*
X372359Y276039D01*
X416360Y320040D01*
X359718Y288680D02*
Y291837D01*
X565905Y288805D02*
X586740Y267970D01*
X400050Y82550D02*
Y204470D01*
X395093Y77593D02*
X400050Y82550D01*
X525710Y93980D02*
X609600Y177870D01*
Y312420D01*
X302260Y135890D02*
X360680Y77470D01*
X302260Y135890D02*
Y351070D01*
X360680Y77470D02*
X385610D01*
X93420Y281390D02*
Y353770D01*
X93460Y60210D02*
Y281390D01*
X314960Y257240D02*
X359260Y212940D01*
X416360Y320040D02*
X449580D01*
X385733Y77593D02*
X395093D01*
X385610Y77470D02*
X385733Y77593D01*
X288840Y364490D02*
X302260Y351070D01*
X259250Y408940D02*
X290830D01*
X314960Y257240D02*
Y384810D01*
X290830Y408940D02*
X314960Y384810D01*
X198840Y348530D02*
X259250Y408940D01*
X198840Y334010D02*
Y348530D01*
X566420Y35560D02*
X601980Y71120D01*
X118110Y35560D02*
X566420D01*
X93460Y60210D02*
X118110Y35560D01*
X264160Y289560D02*
X288840Y314240D01*
Y334010D01*
X230820Y289560D02*
X264160D01*
X217170Y187960D02*
Y267970D01*
X133350Y104140D02*
X217170Y187960D01*
X288840Y364490D02*
Y393700D01*
X601980Y71120D02*
Y91440D01*
X133350Y74220D02*
Y104140D01*
M02*
